<?xml version="1.0" encoding="utf-8"?>
<!-- Generator: Adobe Illustrator 23.0.1, SVG Export Plug-In . SVG Version: 6.00 Build 0)  -->
<svg version="1.0" id="Layer_1" xmlns="http://www.w3.org/2000/svg" xmlns:xlink="http://www.w3.org/1999/xlink" x="0px" y="0px"
	 viewBox="0 0 1920 1080" style="enable-background:new 0 0 1920 1080;" xml:space="preserve">
<style type="text/css">
	.st0{fill-rule:evenodd;clip-rule:evenodd;fill:#FF0000;}
	.st1{fill:#FF0000;}
	.st2{stroke:#000000;stroke-width:0.5;stroke-miterlimit:10;}
	.st3{stroke:#000000;stroke-width:0.25;stroke-miterlimit:10;}
</style>
<g>
	<g>
		<rect x="141.08" y="533.07" class="st0" width="9.41" height="33.68"/>
		<polygon class="st0" points="153.62,448.87 142.65,465.71 167.74,465.71 		"/>
		<polygon class="st0" points="70.52,517.76 216.34,517.76 216.34,508.58 70.52,510.11 		"/>
		<path class="st0" d="M33,400v189h225V400H33z M243,528.48h-15.68V579h-10.98v-50.52h-43.9v3.06H159.9v35.21h3.14v9.19h-34.5v-9.19
			h3.14v-35.21h-12.54v-3.06H72.09V579H61.11v-50.52H47v-26.03h6.27v-15.31h15.68L180.28,406v3.06l-21.95,33.68l21.95,21.43h12.54
			v10.72l15.68,12.25h26.66v15.31H243V528.48z"/>
	</g>
	<path class="st0" d="M1536,397v189h223V397H1536z M1741,455.61l-1.59,3.1l-3.17,3.1h-9.52v92.9h11.1V564h-179.24v-6.19l3.17-1.55
		l87.24-1.55l3.17-1.55v-3.1l-3.17-1.55h-72.97l-6.34-3.1l-4.76-3.1l-6.34-9.29v-21.68h103.1l3.17-6.19l1.59-4.65l3.17-12.39v-10.84
		c0,0-0.36-3.79-1.59-6.19c-1.15-2.24-3.17-4.65-3.17-4.65l-6.34-3.1l-6.34-1.55h-33.31l-1.59,1.55l-4.76,6.19l-3.17,4.65
		l-6.34,9.29l-3.17,3.1h-38.07l-3.17-1.55l-1.59-1.55v-57.29l1.59-4.65l3.17-1.55h174.48l3.17,1.55l1.59,3.1V455.61z"/>
	<rect x="32.5" y="682.5" class="st1" width="1733" height="14"/>
	<path d="M864.19,667.66"/>
	<path d="M780.63,669.12"/>
	<path d="M871.28,481.14c-13.63,12.34-29.23,20.34-48.52,19.86c-17.62-0.43-27.55-10.24-25.55-27c1.83-15.31,5.64-30.4,8.31-45.63
		c1.31-7.48,2.71-15.24-7.52-18.7c-2.13-0.72-4.94-1.91-3.98-4.85c0.81-2.51,3.55-3.2,6.01-3.17c20.58,0.23,40.88-1.53,61.01-6.05
		c7.82-1.75,6.84,4.62,5.93,9.3c-3.47,17.95-7.15,35.86-10.6,53.81c-1.02,5.29-4.32,12.08,3.15,14.75
		c7.51,2.69,11.44-3.29,14.39-8.95c8.67-16.63,11-34.94,14.05-52.88c2.08-12.25,7.71-17.15,20.45-16.07
		c8.24,0.7,16.61,0.25,24.91-0.01c10.66-0.34,13.95,4.54,11.81,14.07c-3.59,16.02-7.29,32.02-10.29,48.15
		c-1.15,6.2-3.35,13.93,4.15,17.86c7.43,3.89,14.09-0.06,19.95-4.81c6.51-5.28,11.2-11.84,13.76-19.57
		c2.81-8.47,7.31-17.08-8.82-18.8c-10.07-1.07-11.68-10.38-10.44-18.87c1.68-11.5,8.83-18.93,20.87-20.4
		c9.84-1.21,17.08,3.46,20.21,12.71c2.32,6.87,1.66,13.93-0.29,20.81c-7.09,25.03-18.56,47.32-42.48,61.72
		c-0.42,0.41-0.84,0.82-1.26,1.24c-12.01,6.69-24.65,11.46-38.79,11.37c-15.57-0.1-29.26-3.28-34.3-20.07
		c-1.04-3.46-3.03-2.96-5.14-0.77L871.28,481.14z"/>
	<path d="M1340,462.15c-6.71,18.04-17.82,29.69-34.1,35.83c-15.16,5.71-30.57,6.52-43.86-5.45c-6.1-5.49-7.51-12.61-7.1-20.46
		c0.68-12.75,4.78-24.76,7.55-37.06c1.15-5.1,4.97-11.53-3.04-14.28c-7.4-2.54-11.43,2.7-14.21,8.47
		c-5.95,12.37-7.97,25.88-10.84,39.11c-8,36.78-2.81,29.93-37.09,30.6c-25.76,0.5-25.82,0.45-20.42-24.71
		c2.94-13.72,6.2-27.37,9.17-41.09c1.99-9.19,4.64-18.16-7.06-24.14c-5.94-3.04-1.68-6.56,2.53-6.57
		c20.37-0.03,40.31-3.26,60.43-5.81c13.07-1.66,2.21,10.5,5.85,16.39c11.52-8.65,23.75-16.17,38.32-18.8
		c28.92-5.24,41.49,7.42,35.38,35.76c-2.56,11.88-5.32,23.72-7.69,35.64c-0.71,3.56-1.61,8.06,2.44,10.16
		c4.91,2.54,7.61-1.87,10.57-4.72C1330.01,467.93,1331.37,462.69,1340,462.15z"/>
	<path d="M1174,459.52c-6.54,19.51-18.18,30.35-34.45,36.39c-14.46,5.37-29.5,6.45-43.13-2.89c-11.65-7.98-11.74-19.66-9.36-31.33
		c2.22-10.83,5.38-21.53,8.77-32.09c3.18-9.89,2.04-17.28-9.73-20.6c-2.23-0.63-5.26-1.53-5.06-4.23c0.27-3.62,3.83-3.81,6.67-3.74
		c22.03,0.55,43.57-2.41,64.89-7.48c10.27-2.44,10.34,3.53,8.67,10.35c-4.28,17.5-8.66,34.99-12.95,52.49
		c-0.77,3.13-1.62,6.28-1.88,9.47c-0.26,3.12-0.83,6.8,3.13,8.45c3.72,1.55,6.47-0.68,9.03-2.88
		C1162.46,468.14,1164.28,462.8,1174,459.52z"/>
	<path d="M1138.05,380c-19.87,0.12-32.23-7.89-32.05-20.76c0.19-13.09,17.09-24.2,36.88-24.24c18.19-0.04,30.86,8.35,31.12,20.6
		C1174.28,369.46,1158.94,379.88,1138.05,380z"/>
	<polygon points="759,469.89 759,469.07 759.82,469.08 	"/>
	<polygon points="866.73,480.27 866.71,481.18 865.8,481.21 	"/>
	<path d="M942.66,488.47l-0.11,1.1c0,0-1.09,0.13-1.1,0.13C941.86,489.3,942.26,488.89,942.66,488.47z"/>
	<path d="M655.3,499.72l1,0.08c0,0,0.08,0.99,0.09,1C656.03,500.43,655.66,500.07,655.3,499.72z"/>
	<path d="M509.38,360.65l0.11-1.05c0,0,1.04-0.12,1.05-0.12C510.15,359.87,509.76,360.26,509.38,360.65z"/>
	<path d="M469.66,623.8c0,0,0.11-0.11,0.11-0.11C469.78,623.69,469.66,623.8,469.66,623.8z"/>
	<path d="M656.39,500.79c-0.36-0.36-0.73-0.72-1.09-1.08c-4.45-6.63-10.14-11.99-16.27-17.1c-16.63-13.85-35.63-23.79-55.16-32.44
		c-11.64-5.15-15.4-10.12-9.25-22.79c7.12-14.66,10.16-30.91,8.88-47.52c-2.18-28.3-24.02-42.99-51.11-34.77
		c-8.81,2.68-15.65,7.94-21.86,14.38c-0.39,0.39-0.77,0.78-1.16,1.17c-24.63,33.7-22.18,74,5.7,97.05
		c4.48,3.7,12.92,5.05,8.64,14.69c-3.79,8.52-10.26,5.94-16.61,5.7c-20.04-0.75-40.15-2.61-59.96,2.23
		c-19.09,4.66-33.49,14.74-37.02,35.39c-3.37,19.74,7.65,32.68,22.48,43.19c7.64,5.41,15.96,9.64,24.82,12.82
		c4.79,1.72,9.85,3.1,13.36,7.25l-0.13-0.12c-2.06,7.78-5.71,14.87-10.22,21.4C449.5,616.06,427.87,619.63,410,609
		c11.64-5.4,23.38-11.82,18.68-25.98c-4.67-14.03-16.87-19.44-30.34-21.47c-7.31-1.1-14.93-0.87-22.35-0.31
		c-16.22,1.23-29.38,10.93-31.21,23.62c-2.14,14.76,7.17,24.44,18.55,30.22c14.12,7.16,40.57,23.47,76.74,17.36
		c7.16-1.21,11.39-0.67,22.94-6.44c2-1,5.67-3.67,6-4c7.02-7.6,12.79-14.6,16-20c3.97-6.67,4.7-9.89,8.4-12.6
		c6.63-4.85,15.7-4.84,25.98-3.47c34.71,4.64,69.59,4.33,103.51-6.71C661.81,566.55,674.6,536.57,656.39,500.79z M495.74,527.44
		c-2.1,4.15-3.51,8.83-6.34,12.4c-3.81,4.83-2.5,16.46-12.77,13.06c-10.95-3.63-21.7-8.91-22.27-23.54
		c-0.41-10.49,3.97-17.01,13.9-19.58c5.36-1.39,10.95-1.89,13.58-2.32C504.36,508.5,504.87,509.43,495.74,527.44z M521.78,386.08
		c3.02-7.57,8.06-13.29,16.37-12.81c7.97,0.46,11.98,10.83,13.37,14.19c1,2.41,2.28,6.33,2.48,11.54c-0.27,2.38-0.71,5.69-1.48,9.63
		c-0.42,2.13-0.9,4.88-1.77,7.6c-1.64,5.15-1.74,12.64-7.57,14.02c-7.17,1.7-11.66-4.94-15.34-10.11
		C520.56,409.91,516.72,398.76,521.78,386.08z M582.78,558.69c-13.41,5.88-27.87,7.12-39.35,8.07c-37.59-0.34-38.24-1.33-23.84-31.8
		c1-2.11,1.7-4.4,2.99-6.31c2.86-4.24,2.54-12.83,10.06-11.12c2.16,0.49,3.59,1.55,4.28,2.13c4.66,3.9,4.95,11.24,5.07,14.34
		c0.1,2.53,0.17,5.05-1,8c-1.01,2.53-2.49,4.26-4,6c-3.68,4.24-6.25,5.13-6,6c0.46,1.61,10.11,1.7,19.04-1.49
		c1.62-0.58,24.74-10.02,27.23-29.02c1.87-14.28-9.39-22.4-19.7-29.96c-2.24-1.64-4.73-2.99-7.23-4.24
		c-4.73-2.37-5.66-5.54-3.05-10.23c2.6-4.68,5.87-5.47,10.36-2.93c11.78,6.66,23.57,13.33,33.96,22.08
		C612.69,515.97,608.14,547.56,582.78,558.69z"/>
	<path d="M470.78,578.96c0,0-0.13-0.12-0.13-0.12C470.66,578.84,470.78,578.96,470.78,578.96z"/>
	<path d="M1137.07,630.64C1137.07,630.64,1137.07,630.64,1137.07,630.64c-2.96,17.33-21.18,32.59-41.69,35.57
		c-21.26,3.08-31.28-2.08-40.73-21.47c0,0,0,0,0,0c-12.01,10.97-25.53,18.62-41.77,21.09c-26.15,3.96-38.39-8.42-33.11-33.96
		c1.79-8.67,3.48-17.38,5.51-26c2.65-11.25,5.13-22.27-10.58-25.86c0,0,0,0,0,0c2.88-6.22,7.69-4.6,11.47-4.51
		c15.96,0.36,31.6-1.5,47.2-4.83c12.81-2.73,14.9-0.28,12.04,13.05c-3.03,14.14-6.64,28.15-9.42,42.33
		c-1.01,5.16-3.62,12.43,3.14,14.92c6.75,2.48,11.3-3.44,14.1-8.87c7.56-14.7,10.42-30.95,13.24-46.95
		c2.02-11.41,6.87-16.32,18.56-15.42c9.28,0.71,18.66,0.16,28,0.01c9.21-0.15,12.7,3.68,10.51,13.05
		c-3.71,15.89-6.9,31.89-10.22,47.87c-0.91,4.38-3.68,9.68,2.35,12.25c5.24,2.23,8.53-2.02,11.79-5.42
		C1129.95,634.89,1131.28,630.84,1137.07,630.64z"/>
	<path d="M1354.34,634.9l-0.09,0.07L1354.34,634.9z"/>
	<path d="M1354.25,634.97c-0.01,0.93-0.02,1.86-0.03,2.8c0,0,0.18,0.15,0.13,0.11c-0.01-1.22-0.01-1.76-0.01-2.97
		C1354.32,634.91,1354.25,634.97,1354.25,634.97z"/>
	<path d="M1374.46,615.8c14.9-1.28,29.93-1.9,44.31-6.21c9.78-2.93,21.17-6.09,21.32-18.98c0.15-13.63-11.67-17.05-21.9-20.02
		c-21.22-6.17-42.69-4.53-63.62,1.44c-27.21,7.77-48.8,21.47-51.65,53.38c-0.55,6.15-5.25,10.81-9.87,14.89
		c-2.65,2.34-5.84,3.13-9.1,1.53c-3.77-1.85-3.26-5.14-2.41-8.49c2.52-9.96,5.01-19.92,7.43-29.9c6.83-28.12-5.23-40.59-34.16-35.75
		c-15.05,2.52-27.99,9.37-40.45,19.49c0,0,0,0,0,0c3-19.45,3.04-19.24-16.18-15.71c-13.32,2.45-26.71,4.34-40.37,3.99
		c-4.62-0.12-10.37-2.31-14.39,4.54c0,0,0,0,0,0c14.34,3.89,13.9,13.32,10.48,24.96c-4.6,15.66-7.77,31.74-11.84,47.57
		c-2.19,8.51,0.19,12.97,11.94,11.54c10.18-1.25,20.46-1.16,30.66-0.16c9.39,0.92,12.2-4.18,13.85-11.3
		c3.16-13.65,6.73-27.2,10.11-40.79c1.37-5.51,3.39-10.74,6.98-15.16c3.08-3.79,7.07-6.86,12.13-4.94c6.05,2.3,4.11,7.53,3.04,12.03
		c-2.16,9.08-4.78,18.06-6.66,27.2c-4.42,21.47,5.58,34.41,27.57,35.47c17.76,0.85,33.34-5.18,45.31-18.22
		c5.95-6.48,9.22-9.11,15.3-0.21c6.54,9.58,16.61,14.87,28.1,16.99c35.68,6.59,65.44-4.03,89.45-31.01c1.98-2.23,4.77-5,0.32-9.4
		c0,0,0,0,0,0c-16.31,13.06-34.07,22.75-55.94,13.21l0.14,0.11c-2.01-1.15-4.3-2-5.98-3.52c-4.55-4.14-9.83-9.29-7.79-15.37
		C1362.51,613.29,1369.63,616.21,1374.46,615.8z M1360.56,602.07c1.19-12.28,18.9-27.97,31.55-27.75c9.72,0.17,13.58,6.25,9.39,14.8
		c-4.31,8.81-27.96,20.63-37.47,18.98C1360.06,607.41,1360.26,605.15,1360.56,602.07z"/>
	<path d="M726.09,445.23c16.46,0.12,32.62-1.76,48.3-6.79c9.7-3.11,18.74-7.73,18.82-19.69c0.07-11.77-8.55-17.53-18.2-20.43
		c-35.35-10.63-68.69-5.86-97.78,17.29c-16.73,13.31-22.41,32.16-16.36,52.92c5.32,18.26,18.98,28.99,37.35,31.89
		c34.41,5.44,62.19-7.28,84.08-33.73c2.23-2.69,5.25-5.66,2.21-10.13c-8.32,1.38-11.54,10.81-19.55,12.51l-0.82,0.82
		c-21.39,7.88-38.19,4.67-46.44-9.12c-2.35-3.93-5.46-8.47-3.15-13.01C716.86,443.25,722.16,445.2,726.09,445.23z M747.07,401.44
		c6.35,0.47,9,3.88,8.99,6.13c-0.34,15.74-26.88,33.65-38.53,29.89c-2.89-0.93-3.05-2.75-3.09-5.24
		C714.19,418.51,733.4,400.42,747.07,401.44z"/>
	<path class="st2" d="M758.22,589.53c3.45-5.41,7.54-11.15,12.38-17.01c2.32-2.81,4.64-5.43,6.92-7.87c1.3-1.09,3.39-2.6,6.24-3.73
		c2.79-1.1,5.27-1.44,6.97-1.55c8.77,0,17.54,0,26.32,0c0,0-30.96,136.07-30.96,137.61c0,1.55-4.64,6.18-4.64,6.18l-6.19,4.64
		l-9.29,3.09h-20.9V714h153.25v-3.09l-24.77-1.55l-7.74-3.09l-1.55-4.64l30.96-142.25c9.55,0.26,19.09,0.52,28.64,0.77
		c1.75,0.62,4.35,1.75,6.97,3.87c4.84,3.91,7.02,8.68,8.51,13.14c1.55,4.64,2.15,8.58,3.1,12.37c0,0,3.87,16.24,3.87,23.97h5.42
		l9.29-81.95l-13.93,7.73H779.89L765.96,530l-26.32,71.13L735,613.5h7.74l12.1-18.94C755.97,592.88,757.09,591.21,758.22,589.53z"/>
	<path d="M582,550"/>
	<path d="M545,400"/>
	<path d="M598,401"/>
	<path class="st3" d="M676.39,620.81c0-9.23,0-18.47,0.01-27.7c0-0.83,0.02-1.66,0.12-2.49c0.09-0.79,0.63-1.41,1.89-1.47
		c1.22-0.05,1.97,0.4,2.17,1.24c0.36,1.53,0.6,3.08,1.05,4.6c1.46,4.92,5.17,8.96,9.91,12.69c5.42,4.26,11,8.45,14.51,13.74
		c3.37,5.05,3.66,10.22,1.88,15.5c-1.57,4.66-3.97,9.13-7.32,13.33c-0.68,0.85-1.31,2.35-3.07,1.7c-1.85-0.69-0.1-1.85,0.41-2.7
		c2.44-4.13,4.79-8.26,5.79-12.72c2.1-9.39-5.65-19.45-17.79-22.98c-4.64-1.35-5.49-0.99-5.49,2.49
		c-0.02,14.32,0.07,28.63-0.03,42.95c-0.06,8.67-13.97,15.85-26.03,13.57c-8.92-1.69-12.57-8.1-6.98-13.21
		c6.06-5.53,14.15-8.65,24.53-7.21c3.85,0.53,4.56-0.26,4.52-2.71C676.3,639.9,676.39,630.35,676.39,620.81z"/>
	<path class="st3" d="M418.97,403.14c-2.14-5.59-2.32-11.52-1.26-16.85c2.1-10.54-3.37-18.57-13.93-25.93
		c-6.78-4.73-16.05-8.44-16.37-15.93c-0.03-0.72-0.98-1.3-2.33-1.22c-1.36,0.08-1.83,0.73-1.92,1.49c-0.11,0.95-0.13,1.9-0.13,2.85
		c-0.01,11.06-0.01,22.13,0,33.19c0,11.54-0.07,23.08,0.06,34.62c0.03,2.35-0.45,3.52-4.89,2.87c-11.26-1.65-20.04,1.36-26.91,6.79
		c-6.24,4.93-3.25,10.97,6.12,13.23c12.88,3.1,29.43-4.02,29.7-12.85c0.14-4.64,0.02-9.28,0.04-13.92
		c0.02-6.31,0.05-12.61,0.07-18.92c0.01-2.68,1.45-3.24,4.92-1.53c4.12,2.03,8.34,3.98,12.62,5.87c10.09,4.45,12.25,10.63,9.9,17.9
		c-0.68,2.11-1.61,4.15-2.99,6.11c-0.51,0.73-1.61,1.73-0.22,2.24c1.81,0.66,2.57-0.59,3.18-1.38
		C419.21,415.88,421.47,409.67,418.97,403.14z M393.94,383.58c-3.21-2-7.61-5.1-4.92-7.11c2.2-1.65,6.59,1.87,9.46,3.43
		c8.02,4.37,14.46,9.45,14.45,16.73C407.17,391.85,400.56,387.72,393.94,383.58z M393.94,368.43c-3.21-2-7.61-5.1-4.92-7.11
		c2.2-1.65,6.59,1.87,9.46,3.43c8.02,4.37,14.46,9.45,14.45,16.73C407.17,376.69,400.56,372.56,393.94,368.43z"/>
	<path class="st3" d="M1450.97,414.14c-2.14-5.59-2.32-11.52-1.26-16.85c2.1-10.54-3.37-18.57-13.93-25.93
		c-6.78-4.73-16.05-8.44-16.37-15.93c-0.03-0.72-0.98-1.3-2.33-1.22c-1.36,0.08-1.83,0.73-1.92,1.49c-0.11,0.95-0.13,1.9-0.13,2.85
		c-0.01,11.06-0.01,22.13,0,33.19c0,11.54-0.07,23.08,0.06,34.62c0.03,2.35-0.45,3.52-4.89,2.87c-11.26-1.65-20.04,1.36-26.91,6.79
		c-6.24,4.93-3.25,10.97,6.12,13.23c12.88,3.1,29.43-4.02,29.7-12.85c0.14-4.64,0.02-9.28,0.04-13.92
		c0.02-6.31,0.05-12.61,0.07-18.92c0.01-2.68,1.45-3.24,4.92-1.53c4.12,2.03,8.34,3.98,12.62,5.87c10.09,4.45,12.25,10.63,9.9,17.9
		c-0.68,2.11-1.61,4.15-2.99,6.11c-0.51,0.73-1.61,1.73-0.22,2.24c1.81,0.66,2.57-0.59,3.18-1.38
		C1451.21,426.88,1453.47,420.67,1450.97,414.14z M1425.94,394.58c-3.21-2-7.61-5.1-4.92-7.11c2.2-1.65,6.59,1.87,9.46,3.43
		c8.02,4.37,14.46,9.45,14.45,16.73C1439.17,402.85,1432.56,398.72,1425.94,394.58z M1425.94,379.43c-3.21-2-7.61-5.1-4.92-7.11
		c2.2-1.65,6.59,1.87,9.46,3.43c8.02,4.37,14.46,9.45,14.45,16.73C1439.17,387.69,1432.56,383.56,1425.94,379.43z"/>
</g>
</svg>
